<?xml version="1.0" encoding="utf-8"?>
<!-- Generator: Adobe Illustrator 28.0.0, SVG Export Plug-In . SVG Version: 6.00 Build 0)  -->
<svg version="1.1" id="Layer_1" xmlns="http://www.w3.org/2000/svg" xmlns:xlink="http://www.w3.org/1999/xlink" x="0px" y="0px"
	 viewBox="0 0 167.9 55" style="enable-background:new 0 0 167.9 55;" xml:space="preserve">
<style type="text/css">
	.st0{clip-path:url(#SVGID_00000105422770815509849100000013110176240632388229_);}
	.st1{fill:#FFFFFF;}
	.st2{fill:#00A5BD;}
	.st3{fill:#CEF2ED;}
	.st4{fill:#7DCECA;}
	.st5{fill:#9C61C1;}
	.st6{fill:#010101;}
	.st7{clip-path:url(#SVGID_00000090976248460421492700000004205730884712839581_);}
	.st8{clip-path:url(#SVGID_00000096026070852875586040000011115342195930735518_);}
	.st9{clip-path:url(#SVGID_00000113350591830580651280000011135706191091121572_);}
</style>
<g>
	<defs>
		<rect id="SVGID_1_" y="0" width="167.9" height="55"/>
	</defs>
	<clipPath id="SVGID_00000098923334936265738760000011621186716423190708_">
		<use xlink:href="#SVGID_1_"  style="overflow:visible;"/>
	</clipPath>
	<g style="clip-path:url(#SVGID_00000098923334936265738760000011621186716423190708_);">
		<path d="M120,51.8V47h-2v-1h5.1v1h-2v4.8H120z"/>
		<path d="M129.9,46h1l-1.4,5.8h-0.9l-1.3-4l-1.3,4H125l-1.4-5.8h1l0.9,4l1.3-4h0.7l1.3,4L129.9,46z"/>
		<path d="M134,51.9c-0.6,0-1.2-0.2-1.6-0.5c-0.5-0.3-0.9-0.8-1.1-1.3c-0.2-0.5-0.3-1.1-0.2-1.7c0.1-0.6,0.4-1.1,0.8-1.5
			c0.4-0.4,0.9-0.7,1.5-0.8c0.6-0.1,1.2-0.1,1.7,0.2c0.5,0.2,1,0.6,1.3,1.1c0.3,0.5,0.5,1.1,0.5,1.6c0,0.8-0.3,1.5-0.9,2.1
			C135.6,51.6,134.8,51.9,134,51.9z M132.1,48.9c0,0.4,0.1,0.7,0.3,1.1c0.2,0.3,0.5,0.6,0.9,0.7c0.3,0.1,0.7,0.2,1.1,0.1
			c0.4-0.1,0.7-0.3,1-0.5c0.3-0.3,0.4-0.6,0.5-1c0.1-0.4,0-0.8-0.1-1.1c-0.1-0.3-0.4-0.6-0.7-0.9c-0.3-0.2-0.7-0.3-1.1-0.3
			c-0.5,0-1,0.2-1.4,0.6C132.3,47.9,132.1,48.4,132.1,48.9z"/>
		<path d="M141.9,51.9c-1.3,0-2.1-0.6-2.4-1.8h1.1c0.2,0.6,0.6,0.8,1.3,0.8c0.7,0,1.1-0.3,1.1-0.7c0-0.3-0.1-0.5-0.7-0.6l-1.1-0.2
			c-1.1-0.2-1.5-0.7-1.5-1.6c0-0.9,0.8-1.8,2.2-1.8c1.1,0,2,0.7,2.2,1.8h-1.1c-0.2-0.6-0.6-0.8-1.1-0.8c-0.7,0-1,0.4-1,0.7
			c0,0.3,0.2,0.5,0.8,0.6l1.1,0.2c1,0.2,1.5,0.7,1.5,1.5C144.1,51.1,143.2,51.9,141.9,51.9z"/>
		<path d="M145,51.8V46h1v5.8H145z"/>
		<path d="M149.8,51.9c-0.4,0-0.8-0.1-1.2-0.2c-0.4-0.1-0.7-0.4-1-0.6c-0.3-0.3-0.5-0.6-0.7-1c-0.2-0.4-0.2-0.8-0.2-1.1
			c0-0.4,0.1-0.8,0.2-1.1c0.2-0.4,0.4-0.7,0.7-1c0.3-0.3,0.6-0.5,1-0.6c0.4-0.1,0.8-0.2,1.2-0.2c1.2,0,2.3,0.7,2.7,1.8h-1.2
			c-0.2-0.2-0.4-0.4-0.7-0.6c-0.3-0.1-0.6-0.2-0.9-0.2c-0.3,0-0.7,0.1-1,0.3c-0.3,0.2-0.5,0.4-0.7,0.7s-0.2,0.6-0.2,1
			c0,0.3,0.1,0.7,0.3,1c0.2,0.3,0.5,0.5,0.8,0.7c0.3,0.2,0.7,0.2,1,0.2c0.3,0,0.7-0.1,1-0.4c0.3-0.2,0.5-0.5,0.6-0.8h-1.6v-1h2.6
			v3.2h-0.9V51C151.1,51.6,150.5,51.9,149.8,51.9z"/>
		<path d="M156.2,51.8l-1.8-3.8v3.8h-1V46h1.1l1.9,4.1l1.9-4.1h1.1v5.8h-1V48l-1.7,3.8H156.2z"/>
		<path d="M161.1,51.8H160l2.5-5.8h0.8l2.5,5.8h-1.1l-0.4-1h-2.6L161.1,51.8z M161.9,49.8h1.8l-0.9-2.2L161.9,49.8z"/>
		<path class="st1" d="M108.8,48.9c0.3-0.3,0.5-0.7,0.5-1.1c0-0.4-0.2-0.7-0.4-1c-0.3-0.3-0.6-0.4-1-0.4c-0.4,0-0.8,0.1-1,0.4
			c-0.3,0.3-0.5,0.6-0.5,1h0.7c0-0.2,0.1-0.4,0.3-0.5c0.1-0.1,0.3-0.2,0.5-0.2c0.2,0,0.4,0.1,0.5,0.2c0.1,0.1,0.2,0.3,0.2,0.5
			c0,0.2-0.1,0.4-0.3,0.6l-1.9,1.9v0.7h3v-0.7h-2L108.8,48.9z"/>
		<path class="st1" d="M112.4,48.3h0.6l0.7-0.7h-2.1c-1.1,0-1.9,0.8-1.9,1.7c0,0.5,0.2,0.9,0.5,1.2c0.3,0.3,0.8,0.5,1.2,0.5
			c0.5,0,0.9-0.2,1.2-0.5c0.3-0.3,0.5-0.8,0.5-1.2C113.1,49,112.9,48.6,112.4,48.3z M111.4,50.4c-0.3,0-0.5-0.1-0.7-0.3
			c-0.2-0.2-0.3-0.5-0.3-0.7c0-0.3,0.1-0.5,0.3-0.7c0.2-0.2,0.5-0.3,0.7-0.3c0.1,0,0.3,0,0.4,0.1c0.1,0.1,0.2,0.1,0.3,0.2
			c0.1,0.1,0.2,0.2,0.2,0.3c0.1,0.1,0.1,0.3,0.1,0.4c0,0.1,0,0.3-0.1,0.4c-0.1,0.1-0.1,0.2-0.2,0.3c-0.1,0.1-0.2,0.2-0.3,0.2
			C111.6,50.4,111.5,50.4,111.4,50.4z"/>
		<path class="st2" d="M112.4,49.4c0,0.3-0.1,0.5-0.3,0.7c-0.2,0.2-0.5,0.3-0.7,0.3c-0.3,0-0.5-0.1-0.7-0.3
			c-0.2-0.2-0.3-0.5-0.3-0.7c0-0.3,0.1-0.5,0.3-0.7c0.2-0.2,0.5-0.3,0.7-0.3c0.3,0,0.5,0.1,0.7,0.3
			C112.3,48.8,112.4,49.1,112.4,49.4z M115.7,48.9l-0.8,0.8l-4.6,4.6l-0.8,0.8l-0.8-0.8l-4.6-4.6l-0.8-0.8l0.8-0.8l4.6-4.6l0.8-0.8
			l0.8,0.8l4.6,4.6L115.7,48.9z M109.4,51.1v-0.7h-2l1.5-1.5c0.3-0.3,0.5-0.7,0.5-1.1c0-0.4-0.2-0.7-0.4-1c-0.3-0.3-0.6-0.4-1-0.4
			c-0.4,0-0.8,0.1-1,0.4c-0.3,0.3-0.5,0.6-0.5,1h0.7c0-0.2,0.1-0.4,0.3-0.5c0.1-0.1,0.3-0.2,0.5-0.2c0.2,0,0.4,0.1,0.5,0.2
			c0.1,0.1,0.2,0.3,0.2,0.5c0,0.2-0.1,0.4-0.3,0.6l-1.9,1.9v0.7L109.4,51.1z M112.4,48.3h0.6l0.7-0.7h-2.1c-1.1,0-1.9,0.8-1.9,1.7
			c0,0.5,0.2,0.9,0.5,1.2c0.3,0.3,0.8,0.5,1.2,0.5c0.5,0,0.9-0.2,1.2-0.5c0.3-0.3,0.5-0.8,0.5-1.2C113.1,49,112.9,48.6,112.4,48.3
			L112.4,48.3z"/>
		<path class="st3" d="M14.7,0H0.1l7.3,12.6H22L14.7,0z"/>
		<path class="st3" d="M53,12.6L60.4,0H45.8l-7.3,12.6H53z"/>
		<path class="st4" d="M38.4,12.6L45.8,0H14.7L22,12.6H38.4z"/>
		<path class="st3" d="M37.5,39.3l-7.3-12.6l-7.3,12.6l7.3,12.6L37.5,39.3z"/>
		<path class="st4" d="M30.2,26.7L22,12.6H7.4l15.5,26.7L30.2,26.7z"/>
		<path class="st4" d="M30.2,26.7l7.3,12.6L53,12.6H38.4L30.2,26.7z"/>
		<path class="st5" d="M22,12.6l8.2,14.1l8.2-14.1H22z"/>
		<path class="st6" d="M60.6,13.8c-0.3-0.7-0.1-1.1,0.7-1.1h0.5c0.5,0,0.9,0.2,1,0.7l7.9,20.1c0.1,0.3,0.2,0.7,0.3,1
			c0.1,0.3,0.2,0.6,0.3,0.9c0.1,0.4,0.2,0.7,0.3,1h0.1c0.1-0.3,0.2-0.6,0.3-1c0.1-0.3,0.2-0.6,0.3-0.9c0.1-0.4,0.2-0.7,0.4-1
			l7.9-20.1c0.1-0.5,0.5-0.7,1-0.7H82c0.7,0,1,0.4,0.7,1.1L73,38.6c-0.1,0.5-0.5,0.7-1,0.7h-0.6c-0.5,0-0.9-0.2-1-0.7L60.6,13.8z
			 M84.9,26.1c0-2.2,0.4-4.2,1.1-5.9c0.7-1.7,1.6-3.2,2.8-4.3c1.2-1.2,2.6-2.1,4.1-2.7c1.6-0.6,3.2-1,4.9-1c1.7,0,3.3,0.3,4.6,0.9
			c1.3,0.6,2.5,1.4,3.4,2.5c0.9,1.1,1.6,2.4,2.1,4c0.5,1.6,0.7,3.3,0.7,5.2c0,0.3-0.1,0.5-0.3,0.7c-0.2,0.1-0.4,0.2-0.7,0.2H87.2
			c0,1.9,0.3,3.6,0.9,5.1c0.6,1.5,1.4,2.8,2.4,3.8c1.1,1,2.3,1.8,3.6,2.3c1.4,0.5,2.8,0.8,4.4,0.8c0.9,0,1.8-0.1,2.5-0.3
			c0.8-0.2,1.5-0.4,2.1-0.7c0.6-0.3,1.2-0.6,1.6-0.9c0.5-0.3,0.9-0.6,1.2-0.8c0.5-0.4,0.9-0.3,1.2,0.2l0.3,0.4
			c0.3,0.4,0.2,0.8-0.2,1.2c-0.3,0.3-0.8,0.6-1.3,1c-0.5,0.4-1.2,0.7-1.9,1c-0.7,0.3-1.6,0.6-2.5,0.8c-0.9,0.2-1.9,0.4-3,0.4
			c-1.9,0-3.6-0.3-5.3-1c-1.7-0.7-3.1-1.6-4.3-2.8s-2.2-2.7-3-4.3C85.3,30.1,84.9,28.2,84.9,26.1z M106.3,23.6
			c-0.1-1.6-0.4-3-0.8-4.2c-0.5-1.2-1.1-2.1-1.9-2.9c-0.8-0.8-1.7-1.3-2.7-1.7c-1-0.4-2-0.6-3.1-0.6c-1.2,0-2.4,0.2-3.6,0.6
			c-1.1,0.4-2.2,1-3.1,1.8c-0.9,0.8-1.7,1.8-2.3,2.9c-0.6,1.2-1.1,2.5-1.3,4.1H106.3z M114.2,13.7c0-0.6,0.3-0.9,0.9-0.9h0.4
			c0.6,0,0.9,0.3,0.9,0.9v3.8c0,0.3,0,0.6-0.1,0.9c0,0.2,0,0.5-0.1,0.6c0,0.2-0.1,0.4-0.1,0.6h0.1c0.2-0.6,0.6-1.4,1.2-2.2
			c0.6-0.8,1.4-1.7,2.3-2.4c1-0.8,2.1-1.4,3.3-2c1.3-0.6,2.8-0.8,4.5-0.8c1.7,0,3.1,0.2,4.2,0.7c1.1,0.5,2,1.2,2.7,2.1
			c0.7,0.9,1.1,2,1.4,3.2c0.3,1.3,0.4,2.7,0.4,4.2v15.9c0,0.6-0.3,0.9-0.9,0.9H135c-0.6,0-0.9-0.3-0.9-0.9V23.3
			c0-1.2-0.1-2.3-0.2-3.3c-0.1-1.1-0.4-2.1-0.8-2.9c-0.4-0.8-1.1-1.5-2-2c-0.8-0.5-2-0.7-3.5-0.7c-1.5,0-3,0.3-4.3,0.9
			c-1.3,0.6-2.5,1.4-3.6,2.4c-1,1.1-1.8,2.3-2.4,3.8c-0.6,1.4-0.9,3-0.9,4.7v12.3c0,0.6-0.3,0.9-0.9,0.9h-0.4
			c-0.6,0-0.9-0.3-0.9-0.9V13.7z M143.6,13.7c0-0.6,0.3-0.9,0.9-0.9h0.4c0.6,0,0.9,0.3,0.9,0.9v3.8c0,0.3,0,0.6-0.1,0.9
			c0,0.2,0,0.5-0.1,0.6c0,0.2-0.1,0.4-0.1,0.6h0.1c0.2-0.6,0.6-1.4,1.2-2.2c0.6-0.8,1.4-1.7,2.3-2.4c1-0.8,2.1-1.4,3.3-2
			c1.3-0.6,2.8-0.8,4.5-0.8c1.7,0,3.1,0.2,4.2,0.7c1.1,0.5,2,1.2,2.7,2.1c0.7,0.9,1.1,2,1.4,3.2c0.3,1.3,0.4,2.7,0.4,4.2v15.9
			c0,0.6-0.3,0.9-0.9,0.9h-0.4c-0.6,0-0.9-0.3-0.9-0.9V23.3c0-1.2-0.1-2.3-0.2-3.3c-0.1-1.1-0.4-2.1-0.8-2.9c-0.4-0.8-1.1-1.5-2-2
			c-0.8-0.5-2-0.7-3.5-0.7c-1.5,0-3,0.3-4.3,0.9c-1.3,0.6-2.5,1.4-3.6,2.4c-1,1.1-1.8,2.3-2.4,3.8c-0.6,1.4-0.9,3-0.9,4.7v12.3
			c0,0.6-0.3,0.9-0.9,0.9h-0.4c-0.6,0-0.9-0.3-0.9-0.9V13.7z"/>
		<path d="M93.1,46.2c0-0.2,0.1-0.3,0.3-0.3h0.3c0.2,0,0.3,0.1,0.3,0.3v1.7c0,0.1,0,0.1,0,0.1c0,0,0,0.1,0,0.1c0,0,0,0.1,0,0.1h0
			c0.1-0.1,0.2-0.3,0.3-0.4c0.1-0.1,0.3-0.2,0.4-0.3c0.2-0.1,0.4-0.1,0.6-0.1c0.3,0,0.5,0.1,0.8,0.2c0.2,0.1,0.4,0.3,0.6,0.4
			c0.2,0.2,0.3,0.4,0.4,0.7c0.1,0.3,0.1,0.6,0.1,0.9c0,0.3,0,0.6-0.1,0.9c-0.1,0.3-0.2,0.5-0.4,0.7c-0.2,0.2-0.4,0.3-0.6,0.4
			c-0.2,0.1-0.5,0.2-0.8,0.2c-0.2,0-0.5,0-0.6-0.1c-0.2-0.1-0.3-0.2-0.4-0.3c-0.1-0.1-0.2-0.2-0.3-0.4h0c0,0,0,0,0,0.1
			c0,0.1,0,0.1,0,0.2v0.2c0,0.2-0.1,0.2-0.3,0.2h-0.2c-0.2,0-0.3-0.1-0.3-0.3V46.2z M93.9,49.7c0,0.2,0,0.4,0.1,0.6
			c0,0.2,0.1,0.3,0.2,0.5c0.1,0.1,0.2,0.2,0.4,0.3c0.1,0.1,0.3,0.1,0.5,0.1c0.2,0,0.3,0,0.5-0.1c0.1-0.1,0.3-0.2,0.4-0.3
			c0.1-0.1,0.2-0.3,0.3-0.5c0.1-0.2,0.1-0.4,0.1-0.6c0-0.2,0-0.4-0.1-0.6c-0.1-0.2-0.1-0.3-0.2-0.5c-0.1-0.1-0.2-0.2-0.4-0.3
			c-0.1-0.1-0.3-0.1-0.5-0.1c-0.2,0-0.3,0-0.5,0.1c-0.1,0.1-0.3,0.1-0.4,0.3c-0.1,0.1-0.2,0.3-0.3,0.5
			C93.9,49.2,93.9,49.5,93.9,49.7z M97.4,52.9c0-0.1,0.1-0.1,0.1-0.1c0.1,0,0.1,0,0.2,0c0,0,0.1,0,0.1,0.1c0.1,0,0.1,0,0.2,0
			c0.2,0,0.3-0.1,0.4-0.2c0.1-0.1,0.2-0.3,0.3-0.4l0.2-0.5l-1.6-3.8c0-0.1,0-0.2,0-0.2c0-0.1,0.1-0.1,0.2-0.1h0.3
			c0.2,0,0.3,0.1,0.3,0.2l1,2.5c0,0.1,0,0.1,0,0.2c0,0.1,0,0.1,0.1,0.2c0,0.1,0,0.1,0.1,0.2h0l0-0.2c0,0,0-0.1,0-0.2
			c0-0.1,0-0.1,0.1-0.2l1-2.5c0.1-0.1,0.2-0.2,0.3-0.2h0.3c0.1,0,0.2,0,0.2,0.1c0,0.1,0,0.1,0,0.2l-1.9,4.6
			c-0.1,0.3-0.3,0.6-0.6,0.7c-0.2,0.2-0.5,0.3-0.8,0.3c-0.1,0-0.2,0-0.3,0c-0.1,0-0.2-0.1-0.2-0.1c-0.1,0-0.1-0.1-0.1-0.1
			c0-0.1,0-0.1,0-0.2L97.4,52.9z"/>
	</g>
</g>
</svg>
